<svg xmlns="http://www.w3.org/2000/svg" viewBox="0 0 512 512" role="img" aria-label="Lombada">
  <rect width="512" height="512" rx="96" fill="#7C2B2B"/>
  <g fill="#F2EFE8" transform="translate(256 256) scale(.92) translate(-539.5 -543.5)">
    <path d="M448 397.7c0 .5 2.7 2 5.9 3.5 10.5 4.9 9.6-9.2 9.9 141L464 673l4.3-.6c3.6-.4 5.5.2 13.2 4l9 4.5-14.8.1c-13.5 0-15.2.2-17.8 2.1-1.6 1.1-4.5 2.5-6.5 3.1-2 .5-3.4 1.4-3.1 2.1.3.9 22.3 1.3 91.5 1.5l91.2.2v-29c0-15.9-.4-29-.8-29s-1.8 3.2-3.1 7c-5.2 16.2-10.7 24.9-20.3 32.3-11.6 8.8-13.5 9.1-57.3 9.5-37.9.3-38 .3-42.4-2-5.3-2.7-7.9-6-9.1-11.4-.6-2.2-1-60.8-1-137.2V397h-24.5c-13.5 0-24.5.3-24.5.7"/>
    <path d="M511.5 399.2c-.3 1.3-.4 61.6-.3 134.1.3 115.8.5 131.9 1.8 132.7.8.5 3.9 1 6.8 1h5.2V538.1c0-110.2.2-129 1.4-130 .8-.7 3.6-1.1 6.3-.9l4.8.3.5 129.2c.3 71 .7 129.4 1 129.6.6.6 6.3 1.1 10.2.8l2.8-.1.2-129.8c.3-123 .4-129.9 2.1-132.5 1-1.5 3.4-3.5 5.2-4.4 1.9-.9 3.5-2 3.5-2.5 0-.4-11.5-.8-25.5-.8H512z"/>
  </g>
</svg>
